<?xml version="1.0" ?><!DOCTYPE svg  PUBLIC '-//W3C//DTD SVG 1.1//EN'  'http://www.w3.org/Graphics/SVG/1.1/DTD/svg11.dtd'><svg enable-background="new 0 0 75 75" height="75px" id="Layer_1" version="1.1" viewBox="0 0 75 75" width="75px" xml:space="preserve" xmlns="http://www.w3.org/2000/svg" xmlns:xlink="http://www.w3.org/1999/xlink"><g><g><g><g><g><path d="M22.655,12.158c-0.25,0-0.494-0.125-0.636-0.353c-0.078-0.124-0.114-0.261-0.114-0.396       c0-0.25,0.125-0.495,0.353-0.637c0.09-0.057,0.186-0.111,0.28-0.163c0.362-0.199,0.819-0.067,1.018,0.297       c0.062,0.114,0.092,0.238,0.092,0.359c0,0.265-0.141,0.522-0.39,0.659c-0.069,0.038-0.14,0.078-0.206,0.119       C22.928,12.122,22.791,12.158,22.655,12.158z" fill="#44A4E0"/></g><g><path d="M20.64,16.393c-0.412,0-0.747-0.333-0.75-0.745c0-0.001,0-0.002,0-0.002v0c0,0,0,0,0,0       c-0.002-0.302,0.013-0.596,0.044-0.882c0.045-0.412,0.419-0.708,0.827-0.665c0.385,0.042,0.669,0.367,0.669,0.746       c0,0.027-0.001,0.054-0.004,0.081c-0.025,0.233-0.037,0.47-0.036,0.715c0.001,0.414-0.333,0.75-0.746,0.753       C20.642,16.393,20.641,16.393,20.64,16.393z" fill="#44A4E0"/></g><g><path d="M20.988,14.262c-0.088,0-0.178-0.016-0.266-0.048c-0.3-0.114-0.485-0.399-0.484-0.703       c0-0.087,0.016-0.177,0.048-0.264c0.095-0.25,0.202-0.486,0.329-0.716c0.199-0.363,0.656-0.496,1.018-0.296       c0.249,0.136,0.39,0.394,0.389,0.659c0,0.122-0.03,0.245-0.093,0.359c-0.092,0.168-0.17,0.342-0.24,0.526       C21.576,14.077,21.291,14.262,20.988,14.262z" fill="#44A4E0"/></g><g><path d="M21.415,13.396c-0.139,0-0.279-0.038-0.405-0.119c-0.223-0.144-0.345-0.385-0.345-0.632       c0-0.139,0.039-0.279,0.119-0.404c0.192-0.299,0.391-0.552,0.607-0.775c0.288-0.297,0.761-0.304,1.059-0.018       c0.297,0.287,0.307,0.76,0.021,1.059c-0.153,0.16-0.292,0.338-0.424,0.545C21.903,13.275,21.661,13.396,21.415,13.396z" fill="#44A4E0"/></g><g><path d="M20.701,15.381c-0.035,0-0.07-0.002-0.105-0.007c-0.41-0.058-0.696-0.437-0.638-0.847       c0.049-0.352,0.127-0.697,0.233-1.028c0-0.001,0.001-0.002,0.001-0.003c0.127-0.394,0.549-0.612,0.943-0.485       c0.318,0.103,0.521,0.397,0.521,0.714c0,0.076-0.011,0.153-0.036,0.229c-0.037,0.115-0.07,0.232-0.098,0.352       c-0.032,0.139-0.059,0.281-0.08,0.429c0,0,0,0.001,0,0.002C21.39,15.11,21.069,15.381,20.701,15.381z" fill="#44A4E0"/></g><g><path d="M23.519,11.732c-0.307,0-0.595-0.19-0.706-0.495c-0.03-0.084-0.045-0.171-0.044-0.256       c0-0.307,0.19-0.594,0.495-0.705l0.255,0.706l-0.197-0.729c0.058-0.024,0.116-0.047,0.176-0.067       c0.394-0.129,0.817,0.088,0.945,0.482c0.025,0.077,0.037,0.155,0.037,0.232c0,0.316-0.202,0.61-0.519,0.713       c-0.011,0.004-0.177,0.07-0.188,0.074C23.689,11.718,23.603,11.732,23.519,11.732z" fill="#44A4E0"/></g><g><path d="M25.813,11.389c-0.008,0-0.017,0-0.025,0l-0.138-0.003c-0.414,0-0.75-0.336-0.75-0.75       s0.336-0.75,0.75-0.75c0.057-0.005,0.101-0.008,0.148-0.008c0.414,0,0.765,0.336,0.765,0.75c0,0.204-0.082,0.404-0.229,0.545       C26.194,11.308,26.007,11.389,25.813,11.389z" fill="#44A4E0"/></g><g><path d="M21.961,12.703c-0.192,0-0.384-0.073-0.531-0.22c-0.273-0.274-0.291-0.706-0.053-1       c0.019-0.023,0.038-0.045,0.059-0.066l0,0c0.004-0.004,0.01-0.009,0.015-0.015c0.016-0.015,0.033-0.03,0.051-0.044       c0.019-0.015,0.038-0.03,0.053-0.041c0.33-0.231,0.788-0.165,1.032,0.154c0.192,0.251,0.205,0.584,0.051,0.84l0,0c0,0,0,0,0,0       c-0.043,0.071-0.099,0.137-0.167,0.193c-0.001,0.001-0.001,0-0.001,0.001c-0.001,0.001-0.002,0.002-0.004,0.003       c-0.022,0.022-0.033,0.03-0.049,0.04C22.282,12.652,22.121,12.703,21.961,12.703z" fill="#44A4E0"/></g><g><path d="M24.724,11.435c-0.374,0-0.732-0.268-0.784-0.643c-0.005-0.04-0.008-0.08-0.008-0.119       c0-0.362,0.233-0.671,0.604-0.723l0.166-0.018c0.412-0.038,0.814,0.26,0.854,0.669c0.003,0.029,0.004,0.058,0.004,0.085       c0,0.373-0.245,0.688-0.624,0.73c-0.006,0-0.1,0.009-0.105,0.01C24.794,11.432,24.759,11.435,24.724,11.435z" fill="#44A4E0"/></g><g><path d="M32.365,23.965h-8.725c-0.236,0-0.458-0.111-0.6-0.3c-1.956-2.61-3.073-5.392-3.146-7.833       c-0.006-0.207,0.073-0.406,0.219-0.553c0.146-0.146,0.349-0.221,0.552-0.219c3.225,0.095,6.995,1.998,10.083,5.088       c0.806,0.805,1.555,1.69,2.227,2.632c0.163,0.229,0.185,0.529,0.057,0.779C32.903,23.808,32.646,23.965,32.365,23.965z        M24.021,22.465h6.818c-0.367-0.438-0.75-0.858-1.149-1.256c-2.511-2.512-5.582-4.208-8.222-4.577       C21.726,18.457,22.627,20.524,24.021,22.465z" fill="#44A4E0"/></g></g><g><g><path d="M42.638,23.965H32.364c-0.243,0-0.47-0.117-0.611-0.315c-0.622-0.873-1.316-1.694-2.064-2.441       c-2.79-2.791-6.268-4.573-9.078-4.65c-0.398-0.011-0.718-0.331-0.729-0.729c-0.051-1.82,0.482-3.342,1.542-4.401       c1.018-1.018,2.457-1.555,4.161-1.555c3.274,0,7.137,1.907,10.334,5.102c0.555,0.556,1.084,1.151,1.581,1.779       c0.498-0.628,1.027-1.225,1.582-1.779c3.197-3.195,7.06-5.102,10.334-5.102c1.705,0,3.144,0.538,4.162,1.555       c1.057,1.057,1.59,2.579,1.541,4.4c-0.011,0.398-0.331,0.718-0.729,0.729c-2.812,0.08-6.29,1.861-9.077,4.65       c-0.75,0.751-1.445,1.572-2.065,2.442C43.108,23.848,42.88,23.965,42.638,23.965z M32.747,22.465h9.509       c0.608-0.821,1.279-1.599,1.997-2.317c2.858-2.86,6.298-4.702,9.351-5.037c-0.083-1.092-0.454-1.989-1.086-2.622       c-0.73-0.73-1.803-1.116-3.101-1.116c-2.842,0-6.396,1.787-9.274,4.663c-0.73,0.73-1.415,1.539-2.033,2.402       c-0.282,0.393-0.938,0.393-1.22,0c-0.618-0.862-1.301-1.67-2.032-2.402c-2.877-2.875-6.431-4.662-9.273-4.662       c-1.298,0-2.371,0.386-3.101,1.116c-0.633,0.633-1.004,1.531-1.087,2.621c3.052,0.333,6.492,2.175,9.352,5.037       C31.465,20.863,32.136,21.641,32.747,22.465z" fill="#44A4E0"/></g><g><g><path d="M52.346,12.16c-0.139,0-0.279-0.039-0.405-0.119l-0.159-0.095c-0.002-0.001-0.005-0.003-0.008-0.004        l-0.033-0.019l0-0.001c-0.33-0.214-0.464-0.661-0.271-1.007c0.202-0.36,0.63-0.503,0.991-0.307l0.012,0.007v0v0l0.111,0.063        c0.005,0.003,0.011,0.006,0.016,0.009c0.017,0.01,0.034,0.02,0.05,0.03c0.273,0.112,0.465,0.381,0.465,0.694        c0,0.414-0.336,0.75-0.75,0.75C52.359,12.16,52.354,12.16,52.346,12.16z" fill="#44A4E0"/></g><g><path d="M54.36,16.393c-0.002,0-0.004,0-0.007,0c-0.414-0.004-0.746-0.342-0.743-0.755        c0.002-0.244-0.01-0.48-0.036-0.712c-0.003-0.027-0.004-0.054-0.004-0.081c0-0.378,0.284-0.704,0.669-0.746        c0.41-0.042,0.782,0.252,0.827,0.665c0.031,0.289,0.048,0.584,0.044,0.888C55.106,16.062,54.771,16.393,54.36,16.393z" fill="#44A4E0"/></g><g><path d="M54.012,14.262c-0.304,0-0.59-0.186-0.703-0.488c-0.068-0.181-0.148-0.356-0.239-0.524        c-0.062-0.114-0.091-0.236-0.091-0.357c0-0.266,0.142-0.523,0.392-0.66c0.364-0.198,0.82-0.063,1.017,0.3        c0.125,0.23,0.235,0.469,0.327,0.718c0.032,0.086,0.047,0.175,0.047,0.262c0,0.304-0.187,0.59-0.488,0.703        C54.188,14.247,54.099,14.262,54.012,14.262z" fill="#44A4E0"/></g><g><path d="M53.585,13.398c-0.248,0-0.49-0.123-0.633-0.347c-0.131-0.207-0.269-0.383-0.42-0.54        c-0.287-0.297-0.28-0.771,0.017-1.059c0.296-0.288,0.769-0.283,1.059,0.013c0.219,0.223,0.418,0.479,0.611,0.78        c0.08,0.125,0.117,0.265,0.117,0.402c0,0.248-0.123,0.49-0.347,0.633C53.863,13.361,53.724,13.398,53.585,13.398z" fill="#44A4E0"/></g><g><path d="M54.3,15.381c-0.368,0-0.688-0.27-0.742-0.645c-0.021-0.146-0.047-0.29-0.081-0.43        c-0.028-0.119-0.06-0.236-0.098-0.353c0,0-0.001-0.001,0-0.002c-0.126-0.395,0.092-0.816,0.486-0.942        c0.396-0.126,0.816,0.091,0.943,0.485c0.088,0.274,0.158,0.561,0.208,0.854c0.036,0.087,0.055,0.183,0.055,0.283        c0,0.417-0.318,0.728-0.757,0.75C54.309,15.381,54.304,15.381,54.3,15.381z" fill="#44A4E0"/></g><g><path d="M51.467,11.73c-0.084,0-0.171-0.016-0.257-0.049c-0.005-0.002-0.084-0.034-0.089-0.037        c-0.325-0.105-0.555-0.422-0.555-0.75c0-0.07,0.011-0.141,0.033-0.21c0.128-0.394,0.512-0.626,0.905-0.498        c0.066,0.021,0.13,0.047,0.193,0.073c0.296,0.123,0.493,0.423,0.494,0.729c0,0.087-0.016,0.174-0.05,0.258        C52.022,11.543,51.758,11.73,51.467,11.73z" fill="#44A4E0"/></g><g><path d="M49.187,11.387c-0.194,0-0.381-0.075-0.521-0.21c-0.147-0.141-0.229-0.336-0.229-0.54v-0.01        c0-0.395,0.306-0.722,0.699-0.748c0.04-0.003,0.174,0.001,0.214,0.005c0.004,0,0.007,0,0.011,0.001        c0.409,0.006,0.739,0.339,0.739,0.75c0,0.412-0.332,0.746-0.743,0.75l0,0c-0.001,0-0.003,0-0.003,0c-0.002,0-0.002,0-0.004,0        l-0.137,0.001C49.205,11.387,49.195,11.387,49.187,11.387z" fill="#44A4E0"/></g><g><path d="M53.083,12.72c-0.183,0-0.367-0.065-0.515-0.184c-0.079-0.063-0.145-0.143-0.193-0.234        c0,0,0-0.001-0.001-0.001c-0.009-0.018-0.018-0.036-0.026-0.054c-0.002-0.005-0.004-0.011-0.006-0.016l0,0        c-0.123-0.306-0.032-0.661,0.231-0.869c0.284-0.225,0.688-0.214,0.96,0.026c0.089,0.079,0.157,0.175,0.2,0.281        c0.167,0.319,0.068,0.68-0.215,0.904C53.392,12.673,53.238,12.72,53.083,12.72z" fill="#44A4E0"/></g><g><path d="M50.364,11.443c-0.034,0-0.069-0.002-0.104-0.007l-0.091-0.009c-0.005,0-0.097-0.009-0.102-0.01        c-0.384-0.042-0.669-0.367-0.669-0.745c0-0.027,0.001-0.054,0.004-0.082c0.044-0.412,0.41-0.71,0.826-0.665l0.238,0.024        c0.375,0.052,0.646,0.373,0.647,0.741c0,0.035-0.002,0.07-0.007,0.105C51.054,11.172,50.733,11.443,50.364,11.443z" fill="#44A4E0"/></g></g></g></g><g><path d="M41.479,22.686c-0.414,0-0.75-0.336-0.75-0.75c0-1.78-1.449-3.229-3.229-3.229     c-1.78,0-3.228,1.448-3.228,3.229c0,0.414-0.336,0.75-0.75,0.75s-0.75-0.336-0.75-0.75c0-2.607,2.121-4.729,4.728-4.729     c2.608,0,4.729,2.121,4.729,4.729C42.229,22.35,41.894,22.686,41.479,22.686z" fill="#44A4E0"/></g></g><g><g><path d="M44.034,34.93H30.966c-0.414,0-0.75-0.336-0.75-0.75V23.215c0-0.414,0.336-0.75,0.75-0.75h13.068     c0.414,0,0.75,0.336,0.75,0.75V34.18C44.784,34.594,44.448,34.93,44.034,34.93z M31.716,33.43h11.568v-9.465H31.716V33.43z" fill="#44A4E0"/></g><g><path d="M63.943,34.93H11.057c-0.414,0-0.75-0.336-0.75-0.75V23.215c0-0.414,0.336-0.75,0.75-0.75h52.887     c0.414,0,0.75,0.336,0.75,0.75V34.18C64.693,34.594,64.357,34.93,63.943,34.93z M11.807,33.43h51.387v-9.465H11.807V33.43z" fill="#44A4E0"/></g></g><g><path d="M51.358,23.965h-8.722c-0.281,0-0.538-0.157-0.667-0.407c-0.128-0.25-0.106-0.55,0.057-0.779    c0.672-0.942,1.421-1.827,2.227-2.632c3.087-3.09,6.856-4.993,10.082-5.088c0.208-0.001,0.407,0.074,0.552,0.219    c0.146,0.146,0.226,0.346,0.219,0.553c-0.073,2.443-1.191,5.226-3.148,7.834C51.817,23.854,51.594,23.965,51.358,23.965z     M44.164,22.465h6.815c1.395-1.939,2.296-4.007,2.555-5.833c-2.64,0.37-5.711,2.065-8.22,4.577    C44.915,21.606,44.53,22.027,44.164,22.465z" fill="#44A4E0"/></g><g><g><path d="M58.841,65.127H16.159c-0.414,0-0.75-0.336-0.75-0.75V34.18c0-0.414,0.336-0.75,0.75-0.75h42.682     c0.414,0,0.75,0.336,0.75,0.75v30.197C59.591,64.791,59.255,65.127,58.841,65.127z M16.909,63.627h41.182V34.93H16.909V63.627z" fill="#44A4E0"/></g></g><g><g><path d="M59.217,45.434c-0.192,0-0.384-0.073-0.53-0.22l-0.376-0.376c-0.147-0.147-0.22-0.34-0.22-0.532     c0-0.192,0.074-0.385,0.221-0.532c0.293-0.292,0.769-0.291,1.061,0.003l0.375,0.376c0.078,0.078,0.136,0.169,0.172,0.267     c0,0,0.001,0,0.001,0.002l0,0c0,0,0,0.001,0.001,0.002l0,0c0,0.001,0,0.001,0,0.002v0c0,0.001,0,0.002,0.001,0.002     c0,0.001,0,0.001,0.001,0.002c0,0,0,0.001,0,0.001v0c0,0,0,0.001,0,0.001l0,0c0,0.001,0.001,0.001,0,0.002l0,0.001l0,0.001     l0,0.001c0,0,0.001,0.001,0,0.002c0,0.001,0,0.002,0.001,0.002c0,0,0,0,0,0.002c0,0,0,0.001,0,0.002c0,0,0,0.001,0,0.001     c0,0,0,0.001,0,0.001c0,0,0,0.001,0,0.001c0,0,0,0.001,0,0.002c0,0.001,0,0.001,0,0.002l0,0c0,0.001,0,0.001,0,0.002     c0,0,0,0.001,0,0.001l0,0c0,0,0,0.002,0,0.002c0,0,0.001,0.001,0.001,0.002c0,0,0,0,0,0.002l0,0c0,0,0.001,0.001,0,0.002l0,0.001     c0,0,0,0.001,0,0.001c0,0.001,0,0.001,0.001,0.003c0,0,0,0.001,0,0.002v0c0,0,0,0.001,0,0.001v0     c0.001,0.002,0.001,0.002,0.001,0.002s0,0.001,0,0.002c0,0,0,0.001,0,0.002v0c0,0,0,0.001,0,0.001v0c0,0.001,0,0.001,0,0.002v0     c0,0,0,0.001,0,0.002c0,0,0,0,0.001,0.002v0c0,0,0,0.001,0,0.002l0,0c0,0,0,0.001,0,0.002c0,0,0,0,0,0.002l0,0     c0,0,0,0.001,0,0.001v0.001c0,0,0,0.001,0,0.002l0,0c0,0,0,0.001,0,0.002v0c0,0,0,0.001,0,0.002l0,0c0,0.001,0,0.001,0,0.002v0     c0,0,0,0.001,0,0.002l0,0c0,0,0,0.001,0,0.001s0-0.001,0,0.003c0,0,0,0.001,0,0.002l0,0c0,0,0,0.001,0,0.001s0,0,0,0.002     c0,0.001,0.001,0.001,0,0.002l0,0.002c0,0,0,0,0,0c0,0.001,0,0.001,0,0.002v0c0.001,0.001,0,0.001,0,0.002c0,0,0,0.001,0,0.001     v0.001c0,0.001,0,0.001,0,0.002c0,0,0,0.001,0,0.001v0c0,0.001,0,0.002,0,0.002c0,0.001,0,0.001,0,0.002c0,0,0,0.001,0,0.001     c0,0.001,0,0.001,0,0.002c0,0,0.001,0.002,0,0.002c0,0,0,0.001,0,0.002v0.001c0,0,0,0.001,0,0.002c0,0,0,0.001,0,0.001     c0,0.001,0,0.001,0,0.002v0.001l0,0c0,0.001,0,0.001,0,0.002c0,0,0,0.001,0,0.001v0c0,0,0,0.001,0,0.002c0,0,0,0.001,0,0.002v0     c0.001,0.002,0,0.002,0,0.002s0,0.001,0,0.002l0,0c0,0.001,0,0.001,0,0.002l0,0c0,0,0,0.001,0,0.001s0,0,0,0.001     c0.03,0.224-0.041,0.459-0.213,0.631c-0.099,0.099-0.218,0.164-0.344,0.196l0,0c0,0-0.001,0-0.001,0h0c-0.002,0-0.002,0-0.002,0     c0,0-0.001,0-0.002,0l0,0c-0.001,0.001-0.002,0-0.002,0c0,0-0.001,0-0.002,0l0,0c-0.001,0-0.001,0-0.001,0s-0.002,0-0.005,0.001     l0,0c0,0-0.001,0-0.002,0l0,0c0,0-0.001,0-0.002,0h0c0,0-0.001,0-0.002,0l0,0c0,0-0.001,0-0.002,0h0     c-0.001,0-0.002,0-0.004,0.001h0c0,0-0.001,0-0.002,0l0,0c-0.002,0-0.002,0-0.002,0c0,0-0.001,0-0.002,0l0,0     C59.317,45.429,59.267,45.434,59.217,45.434z" fill="#44A4E0"/></g><g><path d="M60.846,45.693c-0.891,0-1.768-0.303-2.469-0.855c-0.181-0.142-0.286-0.359-0.286-0.589V34.18     c0-0.414,0.336-0.75,0.75-0.75h1.021c0.199,0,0.39,0.079,0.53,0.22l4.255,4.252c0.936,0.938,2.567,0.937,3.502,0l0,0     c0.293-0.293,0.768-0.292,1.061,0c0.293,0.293,0.293,0.768,0,1.061l0,0l-5.573,5.574C62.893,45.282,61.901,45.693,60.846,45.693z      M59.591,43.854c0.943,0.549,2.213,0.397,2.986-0.378l3.373-3.373c-0.893-0.1-1.719-0.497-2.363-1.142l-3.996-3.993V43.854z" fill="#44A4E0"/></g></g><g><path d="M41.583,65.127h-8.166c-0.414,0-0.75-0.336-0.75-0.75V34.18c0-0.414,0.336-0.75,0.75-0.75h8.166    c0.414,0,0.75,0.336,0.75,0.75v30.197C42.333,64.791,41.997,65.127,41.583,65.127z M34.167,63.627h6.666V34.93h-6.666V63.627z" fill="#44A4E0"/></g><g><path d="M14.156,45.694c-1.055,0-2.047-0.412-2.793-1.159l-5.57-5.57c-0.001-0.001-0.003-0.003-0.004-0.004    c-0.292-0.293-0.292-0.768,0-1.061c0.293-0.292,0.768-0.292,1.061,0l0,0c0.936,0.937,2.567,0.937,3.503,0l4.254-4.252    c0.141-0.141,0.332-0.22,0.53-0.22h1.021c0.414,0,0.75,0.336,0.75,0.75v10.07c0,0.23-0.105,0.447-0.286,0.589    C15.922,45.391,15.046,45.694,14.156,45.694z M9.051,40.103l3.373,3.373c0.773,0.775,2.042,0.926,2.985,0.379v-8.886l-3.995,3.993    C10.771,39.606,9.944,40.003,9.051,40.103z" fill="#44A4E0"/></g></g></svg>