<?xml version="1.0" ?><svg viewBox="0 0 64 64" xmlns="http://www.w3.org/2000/svg" style="fill: #0e920f;"><title/><g data-name="Layer 37" id="Layer_37"><path d="M62.73,20.662a1.019,1.019,0,0,0-.046-.145,9.159,9.159,0,0,0-1.057-1.451l-.025-.028a9.292,9.292,0,0,0-.936-.915c-.025-.021-.051-.041-.077-.061a9.041,9.041,0,0,0-1.049-.754c-.02-.013-.041-.023-.061-.035a9.015,9.015,0,0,0-1.2-.61,8.55,8.55,0,0,0-9.115,1.61L38,28.257h0l-.249.223A5.241,5.241,0,0,0,36.6,30h-9.19a5.334,5.334,0,0,0-1.161-1.527l-11.411-10.2a8.547,8.547,0,0,0-9.117-1.609c-.229.095-.455.2-.675.312A9.188,9.188,0,0,0,1.32,20.51l0,0,0,0v0A9.728,9.728,0,0,0,0,25.47V54.537a9.348,9.348,0,0,0,5.479,8.7,8.6,8.6,0,0,0,9.357-1.5l11.411-10.2L24.914,50.04,13.5,60.242A6.551,6.551,0,0,1,6.3,61.412,7.37,7.37,0,0,1,2,54.537V25.47a8.126,8.126,0,0,1,.236-1.926A19.613,19.613,0,0,0,19.5,34a19.456,19.456,0,0,0,6.5-1.13V37H20v2h6v4H20v2h6v4a1,1,0,0,0,1,1H37a1,1,0,0,0,1-1v-4h6V43H38V39h6V37H38V32.872A19.456,19.456,0,0,0,44.5,34a19.61,19.61,0,0,0,17.259-10.45A8.151,8.151,0,0,1,62,25.47V54.537a7.37,7.37,0,0,1-4.3,6.875,6.549,6.549,0,0,1-7.207-1.17L39.332,50.26,38,51.751l11.165,9.983a8.6,8.6,0,0,0,9.357,1.5A9.348,9.348,0,0,0,64,54.537V25.47A9.771,9.771,0,0,0,62.73,20.662ZM19.5,32A17.6,17.6,0,0,1,3.306,21.147c.078-.115.154-.23.238-.34s.182-.243.281-.357c.148-.172.31-.332.474-.489.1-.1.2-.2.309-.292a6.682,6.682,0,0,1,.6-.445c.1-.067.19-.144.292-.206a6.92,6.92,0,0,1,.98-.5A6.586,6.586,0,0,1,13.5,19.765l11.406,10.2a3.288,3.288,0,0,1,.717.94A17.454,17.454,0,0,1,19.5,32Zm16.5,16H28V32h8Zm8.5-16a17.458,17.458,0,0,1-6.126-1.1,3.28,3.28,0,0,1,.712-.936l.245-.218h0L50.5,19.765a6.583,6.583,0,0,1,6.734-1.347c.095.034.191.056.286.094a7.373,7.373,0,0,1,.947.48,6.984,6.984,0,0,1,.828.584l.009.006a7.2,7.2,0,0,1,1.4,1.541A17.6,17.6,0,0,1,44.5,32Z"/><path d="M13.647,8.072l4.319,1.963,1.962,4.319a2.809,2.809,0,0,0,4.544.824l2.7-2.7a2.809,2.809,0,0,0-.824-4.544L22.034,5.966,20.072,1.647A2.809,2.809,0,0,0,15.528.823l-2.7,2.705a2.809,2.809,0,0,0,.824,4.544Zm12.339,2.27a.8.8,0,0,1-.223.717l-2.705,2.705a.81.81,0,0,1-1.309-.238L19.918,9.5,21.5,7.918,25.525,9.75A.8.8,0,0,1,25.986,10.342Zm-11.749-5.4,2.705-2.7A.8.8,0,0,1,17.51,2a.841.841,0,0,1,.149.013.8.8,0,0,1,.592.462L20.082,6.5,18.5,8.083,14.475,6.251a.81.81,0,0,1-.238-1.309Z"/><path d="M39.528,15.178A2.81,2.81,0,0,0,41.514,16a2.806,2.806,0,0,0,2.557-1.647l1.963-4.319,4.319-1.963a2.809,2.809,0,0,0,.824-4.544l-2.7-2.7a2.808,2.808,0,0,0-4.543.824L41.966,5.966,37.647,7.929a2.809,2.809,0,0,0-.824,4.544Zm6.222-12.7a.808.808,0,0,1,1.308-.237l2.7,2.705a.81.81,0,0,1-.238,1.309L45.5,8.083,43.918,6.5ZM38.475,9.75,42.5,7.918,44.082,9.5,42.25,13.526a.809.809,0,0,1-1.308.238l-2.7-2.7a.81.81,0,0,1,.238-1.309Z"/></g></svg>